<svg class=" shadow-md dark:border-slate-700" viewBox="0 0 994.9866666666668 559.68" xmlns="http://www.w3.org/2000/svg" preserveAspectRatio="none" style="width: 994.987px; height: 559.68px;"><defs><filter id="blur"><feGaussianBlur in="SourceGraphic" stdDeviation="0"/></filter></defs><rect class="bg" id="bg" x="0" y="0" width="994.9866666666668" height="559.68" fill="#ffffff"/><g filter="url(#blur)" transform="" transform-origin="center"><path d="M 0 -55.967999999999996 L 0 -55.97&#10;                L 66.33 -27.98&#10;                L 198.99733333333336 -55.97 L 198.99733333333336 -55.97&#10;                L 265.33 -5.97&#10;                L 397.9946666666667 -55.97 L 397.9946666666667 -55.97&#10;                L 464.33 -26.97&#10;                L 596.9920000000001 -55.97 L 596.9920000000001 -55.97&#10;                L 663.32 -25.97&#10;                L 795.9893333333334 -55.97 L 795.9893333333334 -55.97&#10;                L 923.99 -27.98&#10;                L 994.9866666666668 -55.97 L 994.9866666666668 -55.97&#10;                L 1104.99 -27.98&#10;                L 1193.9840000000002 -55.97  V 559.68 H 0 V -55.97 Z" fill="#f95164"/><path d="M 0 0 L 0 0.00&#10;                L 121.00 49.00&#10;                L 198.99733333333336 0.00 L 198.99733333333336 0.00&#10;                L 265.33 27.98&#10;                L 397.9946666666667 0.00 L 397.9946666666667 0.00&#10;                L 486.99 27.98&#10;                L 596.9920000000001 0.00 L 596.9920000000001 0.00&#10;                L 723.99 50.00&#10;                L 795.9893333333334 0.00 L 795.9893333333334 0.00&#10;                L 862.32 27.98&#10;                L 994.9866666666668 0.00 L 994.9866666666668 0.00&#10;                L 1121.99 47.00&#10;                L 1193.9840000000002 0.00  V 559.68 H 0 V 0.00 Z" fill="#e34c62"/><path d="M 0 55.967999999999996 L 0 55.97&#10;                L 69.00 83.95&#10;                L 198.99733333333336 55.97 L 198.99733333333336 55.97&#10;                L 265.33 83.95&#10;                L 397.9946666666667 55.97 L 397.9946666666667 55.97&#10;                L 538.99 83.95&#10;                L 596.9920000000001 55.97 L 596.9920000000001 55.97&#10;                L 663.32 83.95&#10;                L 795.9893333333334 55.97 L 795.9893333333334 55.97&#10;                L 883.99 83.95&#10;                L 994.9866666666668 55.97 L 994.9866666666668 55.97&#10;                L 1061.32 83.95&#10;                L 1193.9840000000002 55.97  V 559.68 H 0 V 55.97 Z" fill="#cd4860"/><path d="M 0 111.93599999999999 L 0 111.94&#10;                L 99.00 162.94&#10;                L 198.99733333333336 111.94 L 198.99733333333336 111.94&#10;                L 265.33 139.92&#10;                L 397.9946666666667 111.94 L 397.9946666666667 111.94&#10;                L 528.99 139.92&#10;                L 596.9920000000001 111.94 L 596.9920000000001 111.94&#10;                L 663.32 139.92&#10;                L 795.9893333333334 111.94 L 795.9893333333334 111.94&#10;                L 862.32 139.92&#10;                L 994.9866666666668 111.94 L 994.9866666666668 111.94&#10;                L 1061.32 139.92&#10;                L 1193.9840000000002 111.94  V 559.68 H 0 V 111.94 Z" fill="#b6435d"/><path d="M 0 167.904 L 0 167.90&#10;                L 66.33 195.89&#10;                L 198.99733333333336 167.90 L 198.99733333333336 167.90&#10;                L 265.33 220.90&#10;                L 397.9946666666667 167.90 L 397.9946666666667 167.90&#10;                L 464.33 195.89&#10;                L 596.9920000000001 167.90 L 596.9920000000001 167.90&#10;                L 697.99 203.90&#10;                L 795.9893333333334 167.90 L 795.9893333333334 167.90&#10;                L 862.32 195.89&#10;                L 994.9866666666668 167.90 L 994.9866666666668 167.90&#10;                L 1061.32 220.90&#10;                L 1193.9840000000002 167.90  V 559.68 H 0 V 167.90 Z" fill="#a03e5b"/><path d="M 0 223.87199999999999 L 0 223.87&#10;                L 66.33 251.86&#10;                L 198.99733333333336 223.87 L 198.99733333333336 223.87&#10;                L 265.33 251.86&#10;                L 397.9946666666667 223.87 L 397.9946666666667 223.87&#10;                L 503.99 251.86&#10;                L 596.9920000000001 223.87 L 596.9920000000001 223.87&#10;                L 717.99 251.86&#10;                L 795.9893333333334 223.87 L 795.9893333333334 223.87&#10;                L 862.32 275.87&#10;                L 994.9866666666668 223.87 L 994.9866666666668 223.87&#10;                L 1061.32 251.86&#10;                L 1193.9840000000002 223.87  V 559.68 H 0 V 223.87 Z" fill="#8a3959"/><path d="M 0 279.84 L 0 279.84&#10;                L 137.00 325.84&#10;                L 198.99733333333336 279.84 L 198.99733333333336 279.84&#10;                L 317.00 307.82&#10;                L 397.9946666666667 279.84 L 397.9946666666667 279.84&#10;                L 531.99 307.82&#10;                L 596.9920000000001 279.84 L 596.9920000000001 279.84&#10;                L 742.99 315.84&#10;                L 795.9893333333334 279.84 L 795.9893333333334 279.84&#10;                L 921.99 320.84&#10;                L 994.9866666666668 279.84 L 994.9866666666668 279.84&#10;                L 1128.99 331.84&#10;                L 1193.9840000000002 279.84  V 559.68 H 0 V 279.84 Z" fill="#743557"/><path d="M 0 335.808 L 0 335.81&#10;                L 85.00 383.81&#10;                L 198.99733333333336 335.81 L 198.99733333333336 335.81&#10;                L 265.33 363.79&#10;                L 397.9946666666667 335.81 L 397.9946666666667 335.81&#10;                L 510.99 372.81&#10;                L 596.9920000000001 335.81 L 596.9920000000001 335.81&#10;                L 712.99 384.81&#10;                L 795.9893333333334 335.81 L 795.9893333333334 335.81&#10;                L 926.99 363.79&#10;                L 994.9866666666668 335.81 L 994.9866666666668 335.81&#10;                L 1065.99 373.81&#10;                L 1193.9840000000002 335.81  V 559.68 H 0 V 335.81 Z" fill="#5e3055"/><path d="M 0 391.77599999999995 L 0 391.78&#10;                L 94.00 441.78&#10;                L 198.99733333333336 391.78 L 198.99733333333336 391.78&#10;                L 287.00 426.78&#10;                L 397.9946666666667 391.78 L 397.9946666666667 391.78&#10;                L 481.99 425.78&#10;                L 596.9920000000001 391.78 L 596.9920000000001 391.78&#10;                L 663.32 419.76&#10;                L 795.9893333333334 391.78 L 795.9893333333334 391.78&#10;                L 889.99 419.76&#10;                L 994.9866666666668 391.78 L 994.9866666666668 391.78&#10;                L 1061.32 419.76&#10;                L 1193.9840000000002 391.78  V 559.68 H 0 V 391.78 Z" fill="#482b53"/><path d="M 0 447.74399999999997 L 0 447.74&#10;                L 74.00 475.73&#10;                L 198.99733333333336 447.74 L 198.99733333333336 447.74&#10;                L 325.00 483.74&#10;                L 397.9946666666667 447.74 L 397.9946666666667 447.74&#10;                L 498.99 475.73&#10;                L 596.9920000000001 447.74 L 596.9920000000001 447.74&#10;                L 663.32 475.73&#10;                L 795.9893333333334 447.74 L 795.9893333333334 447.74&#10;                L 862.32 497.74&#10;                L 994.9866666666668 447.74 L 994.9866666666668 447.74&#10;                L 1061.32 482.74&#10;                L 1193.9840000000002 447.74  V 559.68 H 0 V 447.74 Z" fill="#312650"/><path d="M 0 503.712 L 0 503.71&#10;                L 115.00 546.71&#10;                L 198.99733333333336 503.71 L 198.99733333333336 503.71&#10;                L 289.00 531.70&#10;                L 397.9946666666667 503.71 L 397.9946666666667 503.71&#10;                L 464.33 549.71&#10;                L 596.9920000000001 503.71 L 596.9920000000001 503.71&#10;                L 663.32 540.71&#10;                L 795.9893333333334 503.71 L 795.9893333333334 503.71&#10;                L 862.32 553.71&#10;                L 994.9866666666668 503.71 L 994.9866666666668 503.71&#10;                L 1061.32 538.71&#10;                L 1193.9840000000002 503.71  V 559.68 H 0 V 503.71 Z" fill="#1b224e"/></g></svg>